<svg xmlns="http://www.w3.org/2000/svg" viewBox="0 0 140 140"><rect width="140" height="140" rx="30" fill="#FFE6B0"/><circle cx="70" cy="150" r="88" fill="#CFEAFB"/><g transform="translate(10 4)">
  <path d="M74 101 C96 106 113 93 108 77 C105 67 94 69 97 78" fill="none" stroke="#3D2B1F" stroke-width="13" stroke-linecap="round"/>
  <path d="M74 101 C96 106 113 93 108 77 C105 67 94 69 97 78" fill="none" stroke="#79C24A" stroke-width="8" stroke-linecap="round"/>
  <ellipse cx="60" cy="93" rx="23" ry="20" fill="#79C24A" stroke="#3D2B1F" stroke-width="2.6"/>
  <ellipse cx="60" cy="97" rx="14" ry="13" fill="#E7F6C5"/>
  <circle cx="47" cy="84" r="2.2" fill="#A8DD72"/><circle cx="73" cy="83" r="1.8" fill="#A8DD72"/>
  <g class="gk-boots">
    <rect x="40" y="103" width="17" height="19" rx="5" fill="#FFC83D" stroke="#3D2B1F" stroke-width="2.4"/>
    <rect x="63" y="103" width="17" height="19" rx="5" fill="#FFC83D" stroke="#3D2B1F" stroke-width="2.4"/>
    <rect x="38" y="117" width="21" height="7" rx="3.5" fill="#D99A12" stroke="#3D2B1F" stroke-width="2.2"/>
    <rect x="61" y="117" width="21" height="7" rx="3.5" fill="#D99A12" stroke="#3D2B1F" stroke-width="2.2"/>
    <rect x="41" y="102" width="15" height="5" rx="2.5" fill="#FFE08A" stroke="#3D2B1F" stroke-width="1.8"/>
    <rect x="64" y="102" width="15" height="5" rx="2.5" fill="#FFE08A" stroke="#3D2B1F" stroke-width="1.8"/>
  </g>
  <g class="gk-arms">
    <ellipse cx="38" cy="93" rx="6" ry="10.5" transform="rotate(22 38 93)" fill="#79C24A" stroke="#3D2B1F" stroke-width="2.4"/>
    <ellipse cx="82" cy="93" rx="6" ry="10.5" transform="rotate(-22 82 93)" fill="#79C24A" stroke="#3D2B1F" stroke-width="2.4"/>
    <circle cx="33" cy="102" r="2.4" fill="#A8DD72" stroke="#3D2B1F" stroke-width="1.4"/>
    <circle cx="87" cy="102" r="2.4" fill="#A8DD72" stroke="#3D2B1F" stroke-width="1.4"/></g>
  <circle cx="43" cy="32" r="14" fill="#79C24A" stroke="#3D2B1F" stroke-width="2.6"/>
  <circle cx="77" cy="32" r="14" fill="#79C24A" stroke="#3D2B1F" stroke-width="2.6"/>
  <ellipse cx="60" cy="51" rx="38" ry="30" fill="#79C24A" stroke="#3D2B1F" stroke-width="2.6"/>
  <path d="M30 38 Q60 27 90 38" fill="none" stroke="#79C24A" stroke-width="7"/>
  <circle cx="60" cy="27" r="3.2" fill="#A8DD72"/><circle cx="51" cy="25" r="1.9" fill="#A8DD72"/><circle cx="69" cy="25" r="2.3" fill="#A8DD72"/>
  <ellipse cx="33" cy="59" rx="6.5" ry="4" fill="#FF9F9F" opacity=".75"/>
  <ellipse cx="87" cy="59" rx="6.5" ry="4" fill="#FF9F9F" opacity=".75"/>
  <circle cx="55.5" cy="51" r="1.3" fill="#3D2B1F"/><circle cx="64.5" cy="51" r="1.3" fill="#3D2B1F"/>
  <g class="gk-prop"></g>
  <g class="gk-face">
    <circle cx="43" cy="33" r="10.5" fill="#fff" stroke="#3D2B1F" stroke-width="2"/>
    <circle cx="77" cy="33" r="10.5" fill="#fff" stroke="#3D2B1F" stroke-width="2"/>
    <circle cx="45" cy="35" r="6" fill="#2B1D14"/><circle cx="79" cy="35" r="6" fill="#2B1D14"/>
    <circle cx="43" cy="32.5" r="2.2" fill="#fff"/><circle cx="77" cy="32.5" r="2.2" fill="#fff"/>
    <path d="M50 60 Q60 69 70 60" fill="none" stroke="#3D2B1F" stroke-width="2.6" stroke-linecap="round"/></g>
</g></svg>
